{
  "accessors": [
    {
      "bufferView": 3,
      "componentType": 5126,
      "count": 4246,
      "max": [
        28.000802993774414,
        9.8686428070068359,
        44.526870727539062
      ],
      "min": [
        -28.000801086425781,
        -10.856804847717285,
        -15.651975631713867
      ],
      "type": "VEC3"
    },
    {
      "bufferView": 3,
      "byteOffset": 50952,
      "componentType": 5126,
      "count": 4246,
      "max": [
        0.99999451637268066,
        0.99865531921386719,
        0.99914103746414185
      ],
      "min": [
        -0.99999457597732544,
        -0.99965125322341919,
        -0.98847955465316772
      ],
      "type": "VEC3"
    },
    {
      "bufferView": 4,
      "componentType": 5126,
      "count": 4246,
      "max": [
        0.9999658465385437,
        0.99816066026687622,
        0.9987831711769104,
        1
      ],
      "min": [
        -0.9999658465385437,
        -0.99314409494400024,
        -0.99990284442901611,
        -1
      ],
      "type": "VEC4"
    },
    {
      "bufferView": 2,
      "componentType": 5126,
      "count": 4246,
      "max": [
        0.98696953058242798,
        0.99426096677780151
      ],
      "min": [
        0.011804025620222092,
        0.030413389205932617
      ],
      "type": "VEC2"
    },
    {
      "bufferView": 1,
      "componentType": 5125,
      "count": 21720,
      "max": [
        4245
      ],
      "min": [
        0
      ],
      "type": "SCALAR"
    },
    {
      "bufferView": 5,
      "componentType": 5126,
      "count": 50,
      "max": [
        1,
        0.80784022808074951,
        0.82292252779006958,
        0,
        0.86193758249282837,
        1,
        0.56522226333618164,
        0,
        0.79344570636749268,
        0.95084214210510254,
        1,
        0,
        27.136909484863281,
        20.237672805786133,
        29.221315383911133,
        1
      ],
      "min": [
        -0.88845676183700562,
        -0.80784022808074951,
        -0.82292252779006958,
        0,
        -0.86193758249282837,
        0.017473712563514709,
        -0.31703093647956848,
        0,
        -0.79344570636749268,
        -0.55075079202651978,
        -0.98999190330505371,
        0,
        -27.136909484863281,
        -41.541023254394531,
        -12.543970108032227,
        1
      ],
      "type": "MAT4"
    },
    {
      "bufferView": 0,
      "componentType": 5123,
      "count": 4246,
      "max": [
        48,
        48,
        48,
        47
      ],
      "min": [
        2,
        2,
        2,
        2
      ],
      "type": "VEC4"
    },
    {
      "bufferView": 4,
      "byteOffset": 67936,
      "componentType": 5126,
      "count": 4246,
      "max": [
        1,
        0.49678796529769897,
        0.31402891874313354,
        0.21871039271354675
      ],
      "min": [
        0.2931305468082428,
        0,
        0,
        0
      ],
      "type": "VEC4"
    }
  ],
  "asset": {
    "extras": {
      "author": "3DMaesen (https://sketchfab.com/bumstrum)",
      "license": "CC-BY-4.0 (http://creativecommons.org/licenses/by/4.0/)",
      "source": "https://sketchfab.com/3d-models/first-person-arms-e3c42c05b22944e5839deb8e003f0987",
      "title": "First Person arms"
    },
    "generator": "Sketchfab-9.66.0",
    "version": "2.0"
  },
  "bufferViews": [
    {
      "buffer": 0,
      "byteLength": 33968,
      "byteOffset": 0,
      "byteStride": 8,
      "name": "shortBufferViews",
      "target": 34962
    },
    {
      "buffer": 0,
      "byteLength": 86880,
      "byteOffset": 33968,
      "name": "floatBufferViews",
      "target": 34963
    },
    {
      "buffer": 0,
      "byteLength": 33968,
      "byteOffset": 120848,
      "byteStride": 8,
      "name": "floatBufferViews",
      "target": 34962
    },
    {
      "buffer": 0,
      "byteLength": 101904,
      "byteOffset": 154816,
      "byteStride": 12,
      "name": "floatBufferViews",
      "target": 34962
    },
    {
      "buffer": 0,
      "byteLength": 135872,
      "byteOffset": 256720,
      "byteStride": 16,
      "name": "floatBufferViews",
      "target": 34962
    },
    {
      "buffer": 0,
      "byteLength": 3200,
      "byteOffset": 392592,
      "byteStride": 64,
      "name": "floatBufferViews"
    }
  ],
  "buffers": [
    {
      "byteLength": 395792,
      "uri": "scene.bin"
    }
  ],
  "images": [
    {
      "uri": "textures/arms_baseColor.png"
    },
    {
      "uri": "textures/arms_metallicRoughness.png"
    },
    {
      "uri": "textures/arms_normal.png"
    }
  ],
  "materials": [
    {
      "doubleSided": false,
      "name": "arms",
      "normalTexture": {
        "index": 2,
        "scale": 1,
        "texCoord": 0
      },
      "occlusionTexture": {
        "index": 1,
        "strength": 1,
        "texCoord": 0
      },
      "pbrMetallicRoughness": {
        "baseColorFactor": [
          1,
          1,
          1,
          1
        ],
        "baseColorTexture": {
          "index": 0,
          "texCoord": 0
        },
        "metallicFactor": 0,
        "metallicRoughnessTexture": {
          "index": 1,
          "texCoord": 0
        },
        "roughnessFactor": 0.82861359891529718
      }
    }
  ],
  "meshes": [
    {
      "name": "armsmesh_arms_0",
      "primitives": [
        {
          "attributes": {
            "JOINTS_0": 6,
            "NORMAL": 1,
            "POSITION": 0,
            "TANGENT": 2,
            "TEXCOORD_0": 3,
            "TEXCOORD_1": 3,
            "WEIGHTS_0": 7
          },
          "indices": 4,
          "material": 0,
          "mode": 4
        }
      ]
    }
  ],
  "nodes": [
    {
      "children": [
        1
      ],
      "name": "RootNode (gltf orientation matrix)",
      "rotation": [
        -0.70710678118654746,
        -0,
        -0,
        0.70710678118654757
      ]
    },
    {
      "children": [
        2
      ],
      "name": "RootNode (model correction matrix)"
    },
    {
      "children": [
        3
      ],
      "matrix": [
        1,
        0,
        0,
        0,
        0,
        0,
        1,
        0,
        0,
        -1,
        0,
        0,
        0,
        0,
        0,
        1
      ],
      "name": "e329aa7501d248a4851458ecba674d6e.fbx"
    },
    {
      "children": [
        4
      ],
      "name": "RootNode"
    },
    {
      "children": [
        5,
        7,
        6
      ],
      "name": ""
    },
    {
      "children": [
        8
      ],
      "name": "_rootJoint"
    },
    {
      "matrix": [
        0.81837979785744053,
        0.11399175276713962,
        0.56325872097987695,
        0,
        0.013553380588924656,
        0.97602858869865072,
        -0.21721993443864862,
        0,
        -0.57451789557282207,
        0.1854024658519792,
        0.79721710551303449,
        0,
        19.925812961175996,
        0.67147492584809498,
        -2.2972548451655754,
        1
      ],
      "name": ""
    },
    {
      "mesh": 0,
      "name": "",
      "skin": 0
    },
    {
      "children": [
        9,
        33
      ],
      "name": "chest_01",
      "translation": [
        0,
        11.876830101013184,
        -22.226486206054688
      ]
    },
    {
      "children": [
        10
      ],
      "name": "L_arm_02",
      "rotation": [
        0.24459457397460938,
        0.93795186281204224,
        0.14814598858356476,
        -0.19614429771900177
      ],
      "translation": [
        16.380353927612305,
        -5.3691897392272949,
        4.2716488838195801
      ]
    },
    {
      "children": [
        11
      ],
      "name": "L_elbow_03",
      "rotation": [
        -0.014801494777202606,
        -0.23313640058040619,
        0.17761500179767609,
        0.955971360206604
      ],
      "translation": [
        7.1054273576010019e-15,
        3.5527136788005009e-15,
        -21.15455436706543
      ]
    },
    {
      "children": [
        12,
        16,
        20,
        24
      ],
      "name": "L_wrist_04",
      "rotation": [
        -0.079456351697444916,
        -0.44867295026779175,
        -0.06809716671705246,
        0.88754832744598389
      ],
      "translation": [
        -5.3290705182007514e-15,
        1.0658141036401503e-14,
        -23.992475509643555
      ]
    },
    {
      "children": [
        13
      ],
      "name": "L_thumb1_05",
      "rotation": [
        -0.051155716180801392,
        0.039006937295198441,
        -0.57406169176101685,
        0.8162810206413269
      ],
      "translation": [
        0.1320032924413681,
        -0.3523859977722168,
        -4.7720050811767578
      ]
    },
    {
      "children": [
        14
      ],
      "name": "L_thumb2_06",
      "rotation": [
        -0.068131022155284882,
        0.033443909138441086,
        -0.041608802974224091,
        0.99624717235565186
      ],
      "translation": [
        -0.022268766537308693,
        -0.11121568083763123,
        -4.1409673690795898
      ]
    },
    {
      "children": [
        15
      ],
      "name": "L_thumb3_07",
      "rotation": [
        -0.062529079616069794,
        -0.020218875259160995,
        0.015477754175662994,
        0.99771827459335327
      ],
      "translation": [
        -1.4210854715202004e-14,
        -3.5527136788005009e-15,
        -3.1484847068786621
      ]
    },
    {
      "name": "L_thumb4_08",
      "rotation": [
        -0.034964952617883682,
        -0.013685823418200016,
        0.046641163527965546,
        0.99820578098297119
      ],
      "translation": [
        -1.0658141036401503e-14,
        1.0658141036401503e-14,
        -3.3087756633758545
      ]
    },
    {
      "children": [
        17
      ],
      "name": "L_point1_09",
      "rotation": [
        0.032430294901132584,
        0.39574500918388367,
        0.11497856676578522,
        0.91055715084075928
      ],
      "translation": [
        -5.5153980255126953,
        3.3572409152984619,
        -8.6023540496826172
      ]
    },
    {
      "children": [
        18
      ],
      "name": "L_point2_00",
      "rotation": [
        -0.089215241372585297,
        0.015777468681335449,
        -0.027394017204642296,
        0.99551057815551758
      ],
      "translation": [
        -0.14295020699501038,
        -0.036834567785263062,
        -4.0517086982727051
      ]
    },
    {
      "children": [
        19
      ],
      "name": "L_point3_010",
      "rotation": [
        -0.095557481050491333,
        0.010501952841877937,
        0.032428398728370667,
        0.99484014511108398
      ],
      "translation": [
        -3.5527136788005009e-15,
        -7.1054273576010019e-15,
        -2.7195959091186523
      ]
    },
    {
      "name": "L_point4_011",
      "rotation": [
        0.0070444056764245033,
        0.0030781885143369436,
        -0.072121575474739075,
        0.99736624956130981
      ],
      "translation": [
        3.5527136788005009e-15,
        0,
        -2.6301314830780029
      ]
    },
    {
      "children": [
        21
      ],
      "name": "L_middle1_012",
      "rotation": [
        -0.019086956977844238,
        0.39961773157119751,
        0.1645892858505249,
        0.90158289670944214
      ],
      "translation": [
        -7.1445822715759277,
        3.3544576168060303,
        -6.3216056823730469
      ]
    },
    {
      "children": [
        22
      ],
      "name": "L_middle2_013",
      "rotation": [
        -0.11661238968372345,
        0.018954124301671982,
        -0.028587000444531441,
        0.99258506298065186
      ],
      "translation": [
        -7.1054273576010019e-15,
        -3.5527136788005009e-15,
        -4.398378849029541
      ]
    },
    {
      "children": [
        23
      ],
      "name": "L_middle3_014",
      "rotation": [
        -0.057343985885381699,
        0.029490821063518524,
        0.040909994393587112,
        0.99707990884780884
      ],
      "translation": [
        -7.1054273576010019e-15,
        0,
        -3.7147109508514404
      ]
    },
    {
      "name": "L_middle4_015",
      "rotation": [
        -0.0037396270781755447,
        -0.031562760472297668,
        -0.0001181000770884566,
        0.99949479103088379
      ],
      "translation": [
        0.16377362608909607,
        -0.019423890858888626,
        -2.5905153751373291
      ]
    },
    {
      "children": [
        25,
        29
      ],
      "name": "L_palm_016",
      "rotation": [
        0.11635579913854599,
        0.44760161638259888,
        -0.093684375286102295,
        0.88166749477386475
      ],
      "translation": [
        -5.4010047912597656,
        1.1032822132110596,
        -2.2901332378387451
      ]
    },
    {
      "children": [
        26
      ],
      "name": "L_ring1_017",
      "rotation": [
        -0.25051841139793396,
        0.015882493928074837,
        0.24118795990943909,
        0.93745219707489014
      ],
      "translation": [
        -3.5527136788005009e-15,
        1.3322676295501878e-14,
        -3.8119394779205322
      ]
    },
    {
      "children": [
        27
      ],
      "name": "L_ring2_018",
      "rotation": [
        -0.10605572909116745,
        0.031333837658166885,
        -0.024778448045253754,
        0.99355745315551758
      ],
      "translation": [
        -0.0072608389891684055,
        0.056118138134479523,
        -3.7844748497009277
      ]
    },
    {
      "children": [
        28
      ],
      "name": "L_ring3_019",
      "rotation": [
        -0.1801183819770813,
        -0.042017895728349686,
        -0.048472970724105835,
        0.98155093193054199
      ],
      "translation": [
        0.16422520577907562,
        0.0090224221348762512,
        -3.0439188480377197
      ]
    },
    {
      "name": "L_ring4_020",
      "rotation": [
        -0.00026074066408909857,
        -0.0060183051973581314,
        0.024674749001860619,
        0.99967736005783081
      ],
      "translation": [
        5.3290705182007514e-15,
        -1.4210854715202004e-14,
        -2.3921756744384766
      ]
    },
    {
      "children": [
        30
      ],
      "name": "L_pink1_021",
      "rotation": [
        -0.1600981205701828,
        0.033801291137933731,
        0.22537441551685333,
        0.9604334831237793
      ],
      "translation": [
        -1.8161855936050415,
        -1.6944628953933716,
        -2.6353936195373535
      ]
    },
    {
      "children": [
        31
      ],
      "name": "L_pink2_022",
      "rotation": [
        -0.25433763861656189,
        -0.0096843857318162918,
        0.030355103313922882,
        0.96659046411514282
      ],
      "translation": [
        -8.8817841970012523e-15,
        -3.5527136788005009e-15,
        -2.7310276031494141
      ]
    },
    {
      "children": [
        32
      ],
      "name": "L_pink3_023",
      "rotation": [
        -0.17439426481723785,
        0.038347113877534866,
        0.011224153451621532,
        0.98386490345001221
      ],
      "translation": [
        1.7763568394002505e-15,
        1.4210854715202004e-14,
        -2.1979033946990967
      ]
    },
    {
      "name": "L_pink4_024",
      "rotation": [
        -8.489600319125986e-15,
        2.8720129090358828e-16,
        -0.016660934314131737,
        0.99986129999160767
      ],
      "translation": [
        -1.7763568394002505e-15,
        1.4210854715202004e-14,
        -2.222898006439209
      ]
    },
    {
      "children": [
        34
      ],
      "name": "R_arm_025",
      "rotation": [
        -0.1515289843082428,
        0.95732724666595459,
        0.1476539671421051,
        0.19688034057617188
      ],
      "translation": [
        -16.380353927612305,
        -5.3691897392272949,
        4.2716488838195801
      ]
    },
    {
      "children": [
        35
      ],
      "name": "R_elbow_026",
      "rotation": [
        -0.027501435950398445,
        0.25943443179130554,
        -0.2162344753742218,
        0.94084012508392334
      ],
      "translation": [
        -3.5527136788005009e-15,
        1.7763568394002505e-15,
        -21.15455436706543
      ]
    },
    {
      "children": [
        36,
        40,
        44,
        48
      ],
      "name": "R_wrist_027",
      "rotation": [
        -0.049414079636335373,
        0.43350124359130859,
        0.040053695440292358,
        0.89890521764755249
      ],
      "translation": [
        -7.1054273576010019e-15,
        -3.5527136788005009e-15,
        -23.992475509643555
      ]
    },
    {
      "children": [
        37
      ],
      "name": "R_thumb1_028",
      "rotation": [
        -0.051155716180801392,
        -0.039006937295198441,
        0.57406169176101685,
        0.8162810206413269
      ],
      "translation": [
        -0.1320032924413681,
        -0.3523859977722168,
        -4.7720050811767578
      ]
    },
    {
      "children": [
        38
      ],
      "name": "R_thumb2_029",
      "rotation": [
        -0.068131022155284882,
        -0.033443909138441086,
        0.041608802974224091,
        0.99624717235565186
      ],
      "translation": [
        0.022268766537308693,
        -0.11121568083763123,
        -4.1409673690795898
      ]
    },
    {
      "children": [
        39
      ],
      "name": "R_thumb3_030",
      "rotation": [
        -0.062529079616069794,
        0.020218875259160995,
        -0.015477754175662994,
        0.99771827459335327
      ],
      "translation": [
        1.4210854715202004e-14,
        -1.4210854715202004e-14,
        -3.1484847068786621
      ]
    },
    {
      "name": "R_thumb4_031",
      "rotation": [
        -0.034964952617883682,
        0.013685823418200016,
        -0.046641163527965546,
        0.99820578098297119
      ],
      "translation": [
        1.0658141036401503e-14,
        0,
        -3.3087756633758545
      ]
    },
    {
      "children": [
        41
      ],
      "name": "R_point1_032",
      "rotation": [
        0.032430294901132584,
        -0.39574500918388367,
        -0.11497856676578522,
        0.91055715084075928
      ],
      "translation": [
        5.5153980255126953,
        3.3572409152984619,
        -8.6023540496826172
      ]
    },
    {
      "children": [
        42
      ],
      "name": "R_point2_033",
      "rotation": [
        -0.089215241372585297,
        -0.015777468681335449,
        0.027394017204642296,
        0.99551057815551758
      ],
      "translation": [
        0.14295020699501038,
        -0.036834567785263062,
        -4.0517086982727051
      ]
    },
    {
      "children": [
        43
      ],
      "name": "R_point3_034",
      "rotation": [
        -0.095557481050491333,
        -0.010501952841877937,
        -0.032428398728370667,
        0.99484014511108398
      ],
      "translation": [
        1.5987211554602254e-14,
        0,
        -2.7195959091186523
      ]
    },
    {
      "name": "R_point4_035",
      "rotation": [
        0.0070444056764245033,
        -0.0030781885143369436,
        0.072121575474739075,
        0.99736624956130981
      ],
      "translation": [
        -7.1054273576010019e-15,
        -7.1054273576010019e-15,
        -2.6301314830780029
      ]
    },
    {
      "children": [
        45
      ],
      "name": "R_middle1_036",
      "rotation": [
        -0.019086956977844238,
        -0.39961773157119751,
        -0.1645892858505249,
        0.90158289670944214
      ],
      "translation": [
        7.1445822715759277,
        3.3544576168060303,
        -6.3216056823730469
      ]
    },
    {
      "children": [
        46
      ],
      "name": "R_middle2_037",
      "rotation": [
        -0.11661238968372345,
        -0.018954124301671982,
        0.028587000444531441,
        0.99258506298065186
      ],
      "translation": [
        1.2434497875801753e-14,
        0,
        -4.398378849029541
      ]
    },
    {
      "children": [
        47
      ],
      "name": "R_middle3_038",
      "rotation": [
        -0.057343985885381699,
        -0.029490821063518524,
        -0.040909994393587112,
        0.99707990884780884
      ],
      "translation": [
        5.3290705182007514e-15,
        0,
        -3.7147109508514404
      ]
    },
    {
      "name": "R_middle4_039",
      "rotation": [
        -0.0037396273110061884,
        0.031562760472297668,
        0.00011809264833573252,
        0.99949479103088379
      ],
      "translation": [
        -0.16377362608909607,
        -0.019423890858888626,
        -2.5905153751373291
      ]
    },
    {
      "children": [
        49,
        53
      ],
      "name": "R_palm_040",
      "rotation": [
        0.11635579913854599,
        -0.44760161638259888,
        0.093684375286102295,
        0.88166749477386475
      ],
      "translation": [
        5.4010047912597656,
        1.1032822132110596,
        -2.2901332378387451
      ]
    },
    {
      "children": [
        50
      ],
      "name": "R_ring1_041",
      "rotation": [
        -0.25051841139793396,
        -0.015882493928074837,
        -0.24118795990943909,
        0.93745219707489014
      ],
      "translation": [
        -1.0658141036401503e-14,
        3.5527136788005009e-15,
        -3.8119394779205322
      ]
    },
    {
      "children": [
        51
      ],
      "name": "R_ring2_042",
      "rotation": [
        -0.10605572909116745,
        -0.031333837658166885,
        0.024778448045253754,
        0.99355745315551758
      ],
      "translation": [
        0.0072608389891684055,
        0.056118138134479523,
        -3.7844748497009277
      ]
    },
    {
      "children": [
        52
      ],
      "name": "R_ring3_043",
      "rotation": [
        -0.1801183819770813,
        0.042017895728349686,
        0.048472970724105835,
        0.98155093193054199
      ],
      "translation": [
        -0.16422520577907562,
        0.0090224221348762512,
        -3.0439188480377197
      ]
    },
    {
      "name": "R_ring4_044",
      "rotation": [
        -0.00026074066408909857,
        0.0060183051973581314,
        -0.024674749001860619,
        0.99967736005783081
      ],
      "translation": [
        -1.7763568394002505e-15,
        -3.5527136788005009e-14,
        -2.3921756744384766
      ]
    },
    {
      "children": [
        54
      ],
      "name": "R_pink1_045",
      "rotation": [
        -0.1600981205701828,
        -0.033801291137933731,
        -0.22537441551685333,
        0.9604334831237793
      ],
      "translation": [
        1.8161855936050415,
        -1.6944628953933716,
        -2.6353936195373535
      ]
    },
    {
      "children": [
        55
      ],
      "name": "R_pink2_046",
      "rotation": [
        -0.25433763861656189,
        0.0096843857318162918,
        -0.030355103313922882,
        0.96659046411514282
      ],
      "translation": [
        0,
        7.1054273576010019e-15,
        -2.7310276031494141
      ]
    },
    {
      "children": [
        56
      ],
      "name": "R_pink3_047",
      "rotation": [
        -0.17439426481723785,
        -0.038347113877534866,
        -0.011224153451621532,
        0.98386490345001221
      ],
      "translation": [
        -3.5527136788005009e-15,
        -1.4210854715202004e-14,
        -2.1979033946990967
      ]
    },
    {
      "name": "R_pink4_048",
      "rotation": [
        -8.1793541734033644e-15,
        1.0851203562003281e-15,
        0.016660934314131737,
        0.99986129999160767
      ],
      "translation": [
        1.7763568394002505e-15,
        2.8421709430404007e-14,
        -2.222898006439209
      ]
    }
  ],
  "samplers": [
    {
      "magFilter": 9729,
      "minFilter": 9987,
      "wrapS": 10497,
      "wrapT": 10497
    }
  ],
  "scene": 0,
  "scenes": [
    {
      "name": "OSG_Scene",
      "nodes": [
        0
      ]
    }
  ],
  "skins": [
    {
      "inverseBindMatrices": 5,
      "joints": [
        5,
        8,
        9,
        10,
        11,
        12,
        13,
        14,
        15,
        16,
        17,
        18,
        19,
        20,
        21,
        22,
        23,
        24,
        25,
        26,
        27,
        28,
        29,
        30,
        31,
        32,
        33,
        34,
        35,
        36,
        37,
        38,
        39,
        40,
        41,
        42,
        43,
        44,
        45,
        46,
        47,
        48,
        49,
        50,
        51,
        52,
        53,
        54,
        55,
        56
      ],
      "skeleton": 5
    }
  ],
  "textures": [
    {
      "sampler": 0,
      "source": 0
    },
    {
      "sampler": 0,
      "source": 1
    },
    {
      "sampler": 0,
      "source": 2
    }
  ]
}

